<svg xmlns="http://www.w3.org/2000/svg" xmlns:xlink="http://www.w3.org/1999/xlink" viewBox="0 0 500 186.71"><defs><style>.cls-1{fill:none;}.cls-2{clip-path:url(#clip-path);}.cls-3{fill:#fff;}.cls-4{fill:#390093;}.cls-5{fill:#ffec06;}</style><clipPath id="clip-path"><rect class="cls-1" width="500" height="186.71"/></clipPath></defs><g id="OBJECTS"><g class="cls-2"><path class="cls-3" d="M367.17,38.47a6.44,6.44,0,0,1-.76.43c-.6-.94-1.11-1.79-1.62-2.72a.65.65,0,0,1-.34.17c.34.93.68,1.78,1,2.8a1.38,1.38,0,0,1-2.12-.68c-1.53-2.71-4-3.39-6.7-3.56-3.65-.34-7.3-.51-10.95-.68-4.75-.17-9.41-.26-14.08-.68,1.27-.25,2.55-.59,3.82-.85a1.72,1.72,0,0,1-.08-.59c-4.84.17-9.59.25-14.6.42l1,1.53c-8.23,1.1-16.29,1.1-24.35,1.61h2v.17c-20.87,1.78-41.74,3.65-62.78,5.52-.51.84-1.7,1.27-1.7,2.63a.69.69,0,0,1-.34.5c-1.53.85-2,2.46-2.8,3.74-1.87,3.22-3.56,6.44-5.34,9.58a2.14,2.14,0,0,0-.51,1.11c-.26,3.9-2.29,7.21-3.48,10.77C220.14,76.9,217.68,84,214.71,91l-.25,1c1.61-.17,3-.25,4.5-.42,2.88-.34,5.68-.68,8.57-.93a8.36,8.36,0,0,1,2.12,0,13.87,13.87,0,0,0,3.73-.34,21.19,21.19,0,0,1,6.11-.6c1.27.17,2.54,1.11,4.24,1.87,1-.17,2.46-.51,3.9-.68,2.55-.34,5.09-.51,7.64-.76a16.68,16.68,0,0,0,2.8-.6,14.66,14.66,0,0,1,9.75,4c3.4,2.89,3,6.53.26,9.67-1.44,1.61-2.8,1.36-4-.25l-2.21.34c.51-.94.77-1.53,1.11-2.29-.85-.94-.68-2.29-.17-3.82-1.36-.09-2.63-.26-3.91-.34a116.71,116.71,0,0,0-19.59.68c-8.83.93-17.73,1.86-26.64,2.88-.6.09-1.19.17-2,.34-.85,2-1.78,4.07-2.63,6.2-5.26,12.21-10.52,24.43-15.87,36.65-1.27,3-2.71,6.1-4.16,9.07a46.3,46.3,0,0,1-2.54,4.42,8.41,8.41,0,0,1-2.21,2c-1.95,1.1-2.46.94-4.15-.85l-3.14-.51c-2.29-2.29-3.14-5.51-4.07-8.56a3,3,0,0,1,.25-1.7c1.36,3,1.53,6.45,4.07,9L173,146.81c-2.37-1.95-2.12-5-3.39-7.55-3.31-6.79-5.51-14.25-11.2-19.77-.93-.93-1.78-2-2.54-2.88a50.93,50.93,0,0,1-9.51-6l.77-3.9a4.64,4.64,0,0,1,3.48-3.82c2.46-.68,4.92-1.35,7.46-1.86,6.7-1.28,13.49-2.55,20.19-3.57a31,31,0,0,1,6.88.09,28.78,28.78,0,0,0,7.12-.77c3.48-.67,7.13-1.1,10.69-1.69,1.1-.17,2.21-.51,3.31-.68,7.21-17.39,13.91-34.87,22.23-51.67-.26-.17-.43-.42-.51-.34-3.82.26-7.64.51-11.45.94-3.57.34-7.13.84-10.69,1.35-5.69.77-11.37,1.7-17.06,2.29-2.12.26-4.32.94-6.61.26L186,45.77c-5.09-.43-9.41.76-14.16,1.61.59.34,1,.51,1.52.76a10.36,10.36,0,0,1-4.15,1.28c-2.63.42-5.18,1-7.81,1.61s-5.51.93-8.14,1.69c-4.33,1.28-8.49,2.63-12.73,4.16-1.78.68-3.48,1.78-5.34,2.72-1.53-.51-1.53-.51-2-2.3.94-.59,1.87-1.27,2.8-1.95l-.59-.76c-.93.59-1.87,1.19-2.88,1.95a1.42,1.42,0,0,1,.42-2.37c1.7-1,3.31-1.87,5.09-2.72,1.19-.51,2.46-1,3.73-1.44s2.63-.59,3.91-.85c1.52-.25,3-.34,4.49-.59,1.19-.17,2.29-.51,3.48-.68a41.25,41.25,0,0,0,7.89-1.53,2.69,2.69,0,0,1,1.19-.17A7.06,7.06,0,0,0,167,44.66l-2-.34a6.92,6.92,0,0,1,1.7-.76c3.9-.76,7.8-1.53,11.7-2.12,3.4-.51,6.79-1.27,10.27-1.1a27.06,27.06,0,0,0,5.17-.43V40a1.48,1.48,0,0,1,1.45-1c1.18-.17,2.29-.51,3.47-.59Q209.59,37,220.4,35.84c1.7-.25,3.39,0,5-.17,2.55-.34,5-.93,7.64-1.36,1.44-1.44,2.29-3.64,4.58-4.58,1.36,1.11,2.8,2.29,4.75,3.82.34-.08,1.27-.17,2.21-.25,13-1.11,26-2.3,38.94-3.31s26.13-1.7,39.11-2.46c2.71-.17,5.43-.26,8.14-.26,3.31.09,6.54.26,9.76.51.85.09,1.61.51,2.46.6a11.39,11.39,0,0,0,2.63-.34c-.93-.43-1.53-.6-2.12-.85v-.26c2,0,4.16-.08,6.19.09,3.23.08,6.54.34,9.76.59a7.09,7.09,0,0,1,5.51,3c.6.85,1.28,1.44,1.87,2.21A4.84,4.84,0,0,1,367.17,38.47ZM202.92,101.76c-5.43.68-10.43,1.36-15.35,1.95a6.63,6.63,0,0,1-.6-1.1c-1.69.34-3.39.68-5.09.93-3.56.51-7.13.94-10.6,1.36a34.05,34.05,0,0,0-4.25.51c-3.81.76-7.63,1.61-11.36,2.46a2.85,2.85,0,0,0-1.11.68,1.54,1.54,0,0,0,1.11.34c.93-.26,1.86-.6,2.71-.77,2.72-.59,5.43-1.1,8.06-1.61a5.92,5.92,0,0,1,1.19,0v.26c-3.65,1-7.3,2-11.54,3,1.19.85,1.95,1.36,2.72,1.87,2.12,1.52,4.24,3,5.59,5.43a38.28,38.28,0,0,0,3.48,5.17,28.23,28.23,0,0,1,5.26,9.5,21.53,21.53,0,0,1,1,3.4c1,4.32,2,8.73,3.06,13.66l.33-2.8c.09,0,.17-.09.34-.09.68,1.78,1.28,3.56,2,5.52a9.42,9.42,0,0,0,2.72-3.74c2.37-4.83,4.75-9.58,6.87-14.5,4.24-9.59,8.31-19.35,12.47-29A19,19,0,0,0,202.92,101.76Zm-14.51,40.55c.26-1,.6-2,.94-3.05-.17,0-.26-.09-.43-.09l-6.87,15.19c.93.42,1.36-.25,1.87-.76,2.2-2.29,3.31-5.26,4.41-8.23a1.41,1.41,0,0,0,.17-.94C187.31,143.76,188.24,143,188.41,142.31Zm8.15-20c-1.44,1.61-3.73,6.79-4.67,10.1a14.13,14.13,0,0,0-2.12,5.51,15.61,15.61,0,0,0,2.29-5.34,3.66,3.66,0,0,0,.77-.85c1.1-2.38,2.12-4.84,3.13-7.3A11.35,11.35,0,0,0,196.56,122.29Zm1.27-82.55c-1.36-.17-2.71-.51-4,.26,0,.17,0,.34.09.34A8.81,8.81,0,0,0,197.83,39.74ZM314.57,29.9c-.34-1.19-1-1.1-1.78-1.1-2,.17-4.16.25-6.2.42-6.44.43-12.81,1.19-19.25,1.36-5.69.09-11.29.85-17,1.36a16.25,16.25,0,0,0-1.95.25v.34c4.41-.08,8.82.17,13.15-.25a48.88,48.88,0,0,0,6-.6,62.88,62.88,0,0,1,8-.51c3.13-.08,6.19-.17,9.33-.33h.17c2.63.59,5.26,0,7.8-.26A6.57,6.57,0,0,0,314.57,29.9Zm-24.43,5.18c-2.72,0-5.43.08-8.15.08a2.26,2.26,0,0,0,.09.77A23.89,23.89,0,0,0,290.14,35.08Z"/><path class="cls-3" d="M224.73,125.43a34.08,34.08,0,0,0-2,3.39A35.86,35.86,0,0,0,228,125.6c5.51-4.16,11-8.31,16.63-12.47l4.15-3.31c.51-.34,1.11-.51,1.7-.85l1.27,2.89c1.11-.26,2-1.45,3.23-.6,1.52,2.12.76,4.24,0,6.37a33.23,33.23,0,0,1-1.87,3.9l-7.12,14.34c-.26.51-.6,1-.94,1.61-.76-.94-.17-1.78.09-2.55.42-1,.85-2,1.35-3.05a18.11,18.11,0,0,0,2.63-4.92c-1.18,1.44-2.71,2.8-2.63,4.92-1.1.51-1.44,1.61-1.95,2.63-.59,1.27-1.18,2.54-2,4.07l-1.36-1.53a11.21,11.21,0,0,1-1.1.6,13.79,13.79,0,0,0-1.1-1c.42-1.53,1.36-2.8.93-4.5-.08-.42.34-.93.6-1.44l4-7.8c.17-.43.34-.94.77-1.87l-7.3,5.17a2.2,2.2,0,0,0-.76.09c-.85-.26-1-.17-1.7.93a6.09,6.09,0,0,1,1.27-.17,1.11,1.11,0,0,0,1.44-.59c.77-.34,1.53-.6,2.72-1a80.8,80.8,0,0,1-11.37,8.15c-2,1.27-4.16,2.29-6.28,3.39-2.63,1.36-5.26.93-7.8-.09a2.68,2.68,0,0,1-1.7-3,15.68,15.68,0,0,1,2.55-8.06,88.58,88.58,0,0,1,5.85-7.8,80.35,80.35,0,0,1,15.19-13.74,21.37,21.37,0,0,1,6.7-2.89A14.62,14.62,0,0,0,247,100a15,15,0,0,1,3.14-1.36c1.78-.51,3,.68,4.07,1.95-.34-.08-.67-.25-1.18-.42-.09.42-.26.85-.34,1.44.76.09,1.52.26,2.2.34a4.79,4.79,0,0,1,1.19,5.85c-1.87.85-2,.77-3.14-.84-.34.17-.76.34-1.19.59-.25-.25-.59-.42-.84-.68a9.4,9.4,0,0,1-.51-1,25.38,25.38,0,0,0-3.14,1.45c-3.23,2-6.54,4.15-9.67,6.27-1.79,1.11-3.4,2.46-5.09,3.65C229.31,119.41,227.19,122.55,224.73,125.43Zm-3.14,7.64a10.5,10.5,0,0,1-1.53.34C221.42,133.91,221.84,133.74,221.59,133.07Zm1.61-1.36c.51.17.85.34,1.19.42a13.74,13.74,0,0,1,.76-1.35Zm11.37-4.07a.45.45,0,0,1,.17.34l.5-.6Z"/><path class="cls-3" d="M259.25,133.58a3.92,3.92,0,0,1-1.27-1.87,24.11,24.11,0,0,1,.34-12.05,90.66,90.66,0,0,1,6.19-15.44,11.15,11.15,0,0,1,1.87-2.37c.59,1.27.93,2.2,1.44,3.39.77-.26,1.36-.51,2-.76,1.19,1.18.59,2.63.51,4.07s-.26,2.88-1.78,3.73a2.46,2.46,0,0,0-.6.93,48.48,48.48,0,0,0-4.07,12.73v.68c0,.17.08.25.34.68a38.16,38.16,0,0,0,3.48-2.63c2.8-2.72,5.51-5.52,8.23-8.4a43.24,43.24,0,0,0,3.31-3.48c.33-.34.59-.68.93-1.1l11.62-14.94a1.7,1.7,0,0,1,.51-.25l3,2.46a2.73,2.73,0,0,1,1.1,2.8,9.76,9.76,0,0,1-1.35,2.63c-4.08,5.18-8.15,10.27-12.22,15.36a13.79,13.79,0,0,1-1.44,1.61,33.08,33.08,0,0,0-4.75,5.6,26,26,0,0,1-8,7.21A7.79,7.79,0,0,1,259.25,133.58Zm.09-2c-.09-.51-.26-1-.34-1.52a3.33,3.33,0,0,0-.59.17c.25.51.42,1,.67,1.44A.64.64,0,0,0,259.34,131.62Z"/><path class="cls-4" d="M292.17,128.4a14.24,14.24,0,0,1,.26-3.82,29,29,0,0,1,5.93-12.89c1.53-1.78,2.8-3.65,4.42-5.35a15.79,15.79,0,0,1,3.64-2.63,5.2,5.2,0,0,0,2.21-2.29c1.1-2.46,3.48-3.22,5.77-3.48,1.44-.25,2.29,1,2.71,2,1,.6,1.87.85,2.21,1.36.59,1,1.36,2.29.76,3.48-.68,1.36-.34,2.46-.08,3.82a27.4,27.4,0,0,1,.68,9.84,17.72,17.72,0,0,1-2.8,7.3,20.79,20.79,0,0,1-7.64,7.46,9.64,9.64,0,0,0-6.19.17,17.9,17.9,0,0,1-3,1.1C295.9,136,292.51,131.79,292.17,128.4Zm9.42-12.56a14.88,14.88,0,0,0,3.82-3.81A14.55,14.55,0,0,1,308,109.4c.93-.85,1.95-1.7,2.88-2.63a31.21,31.21,0,0,0,2.29-2.8l-.68-.94c-1.27.85-2.46,1.62-3.65,2.46-3.05,2-5.09,5.18-8,7.55-2.55,2.13-3.56,5.43-4.92,8.4C297.35,119.07,299.47,117.46,301.59,115.84Zm3.48,14.43a8.52,8.52,0,0,0,5.26-3.4c1.52-2,3.64-3.56,4.66-5.94.09-.17.6-.08,1-.08,1.53-2,1.1-4.58.93-7.38-.67,2-1.27,3.65-1.78,5.34a21.62,21.62,0,0,0-.76-13.06l-.34,1.61a3.2,3.2,0,0,1-.42-.76h-.43a51.88,51.88,0,0,0-8.4,7.21,31.28,31.28,0,0,0-4.83,6.7,10.45,10.45,0,0,0-1.7,8.14c1.44.26,2.8.43,4.16.68a.31.31,0,0,1-.09.26h-3.73c.76,1.44,1.7,1.95,3.14,1.52C302.86,130.86,303.88,130.44,305.07,130.27Z"/><path class="cls-3" d="M355.46,108a5.28,5.28,0,0,1-3.73,4.75c-.34-.5-.77-1-1.11-1.61-.17,0-.25-.08-.42-.08-.76-.09-1.61.76-2.38-.09-.08-.08-.67.17-1,.34a37.07,37.07,0,0,0-3.57,1.78,35.68,35.68,0,0,0-7.21,5.43v-.08a29.93,29.93,0,0,1-2.37,3.31c-1.19,1.52-2.63,2.8-3.91,4.24a15.55,15.55,0,0,0-2.12,3.22A70.34,70.34,0,0,1,324,135.7l-3.05-1.7c-.34-1.27-.76-2.72-1.1-4.24,3.56-9.67,8.74-18.75,11.71-28.85l2.63,1.27c-.09.51-.09,1.11-.17,1.79.76.17,1.52.25,2.54.42-.42,1.87-.85,3.56-1.36,5.52.6-.43,1.11-.77,1.53-1.11a22.87,22.87,0,0,1,10.61-5.26,9,9,0,0,1,3-.25,1.88,1.88,0,0,1,1.35.76c.6.6,1,1.44,1.61,2.12.26.26.85.17,1.28.34A1.32,1.32,0,0,1,355.46,108ZM336,118.39a5.71,5.71,0,0,1-.25-.85,25.17,25.17,0,0,0-5.6,5.18c-.34.34-.34,1-.6,2.12,2-2.12,3.4-3.91,5-5.6A10.76,10.76,0,0,1,336,118.39Zm15.36-13.58c-1.27-1-2.21-.59-3.14-.42a24.84,24.84,0,0,0-10.1,4.67C342.73,107.53,346.89,106.26,351.39,104.81Z"/><path class="cls-5" d="M308.52,115.25c.34.91.57,1.42,1,2.39a.33.33,0,0,0,.34.23c.93-.08,1.41-.12,2.37-.22.4-.05.62.46.31.87a26,26,0,0,1-2.14,2.5,1.06,1.06,0,0,0-.29.52,6.06,6.06,0,0,1-.67,2.19c-.16.31-.61.74-.8.73a4.89,4.89,0,0,1-1.46-.36.51.51,0,0,0-.42.08,11.11,11.11,0,0,1-1.73,1c-.21.09-.62-.19-.68-.47a3.92,3.92,0,0,1,.23-2.11.45.45,0,0,0-.08-.44,8.66,8.66,0,0,1-1.27-1.71c-.14-.27.27-.76.66-.87a19.93,19.93,0,0,0,2.4-.81,1,1,0,0,0,.43-.41A10.44,10.44,0,0,0,308,115.5C308.14,115,308.38,114.86,308.52,115.25Z"/><path class="cls-5" d="M308.52,115.25c.34.91.57,1.42,1,2.39a.33.33,0,0,0,.34.23c.93-.08,1.41-.12,2.37-.22.4-.05.62.46.31.87a26,26,0,0,1-2.14,2.5,1.06,1.06,0,0,0-.29.52,6.06,6.06,0,0,1-.67,2.19c-.16.31-.61.74-.8.73a4.89,4.89,0,0,1-1.46-.36.51.51,0,0,0-.42.08,11.11,11.11,0,0,1-1.73,1c-.21.09-.62-.19-.68-.47a3.92,3.92,0,0,1,.23-2.11.45.45,0,0,0-.08-.44,8.66,8.66,0,0,1-1.27-1.71c-.14-.27.27-.76.66-.87a19.93,19.93,0,0,0,2.4-.81,1,1,0,0,0,.43-.41A10.44,10.44,0,0,0,308,115.5C308.14,115,308.38,114.86,308.52,115.25Z"/></g></g></svg>